# xmcd
#
# Track frame offsets:
#	150
#	21359
#	33867
#	51158
#	68404
#	87350
#	104717
#	135154
#	154809
#	178695
# Disc length: 2894 seconds
# Revision: 1
# Processed by: cddbd v1.5.2PL0 Copyright (c) Steve Scherf et al.
#
# Submitted via: libkcddb 0.31
#
DISCID=7b0b4c0a
DTITLE=Giles - blood from a stone
DYEAR=2004
DGENRE=Blues
TTITLE0=she broke my heart
TTITLE1=suzie q
TTITLE2=crazy
TTITLE3=brown instrumental
TTITLE4=in my soul
TTITLE5=blood from a stone
TTITLE6=rooin' and tumblin' - live
TTITLE7=tease you
TTITLE8=you don't know
TTITLE9=coming home - live
EXTD=
EXTT0=
EXTT1=
EXTT2=
EXTT3=
EXTT4=
EXTT5=
EXTT6=
EXTT7=
EXTT8=
EXTT9=
PLAYORDER=
